<svg xmlns="http://www.w3.org/2000/svg" viewBox="0 0 1600 900" preserveAspectRatio="xMidYMid slice">
<defs>
 <linearGradient id="bg" x1="0" y1="0" x2="0" y2="1"><stop offset="0" stop-color="#121a1e"/><stop offset=".58" stop-color="#0c1215"/><stop offset="1" stop-color="#07090a"/></linearGradient>
 <radialGradient id="sky" cx="50%" cy="30%" r="58%"><stop offset="0" stop-color="#34464d" stop-opacity=".42"/><stop offset=".55" stop-color="#172328" stop-opacity=".14"/><stop offset="1" stop-color="#050708" stop-opacity="0"/></radialGradient>
 <radialGradient id="lampGlow"><stop offset="0" stop-color="#e0bd70" stop-opacity=".30"/><stop offset="1" stop-color="#e0bd70" stop-opacity="0"/></radialGradient>
 <linearGradient id="road" x1="0" y1="0" x2="1" y2="0"><stop offset="0" stop-color="#080b0d"/><stop offset=".5" stop-color="#252e31"/><stop offset="1" stop-color="#080b0d"/></linearGradient>
 <filter id="blur"><feGaussianBlur stdDeviation="22"/></filter>
</defs>
<rect width="1600" height="900" fill="url(#bg)"/><rect width="1600" height="900" fill="url(#sky)"/>
<!-- distant skyline -->
<path d="M0 370h140V290h110v80h100v-125h145v125h120V315h135v55h100v-105h150v105h110v-75h125v75h165v530H0z" fill="#0a0e10"/>
<!-- left facades -->
<path d="M0 455L265 330l255 120v350H0z" fill="#10171a"/><path d="M0 455l265-125 255 120-25 24-230-103L0 486z" fill="#1b2326"/>
<g fill="#1d272a" stroke="#2c3739" stroke-width="2"><rect x="70" y="500" width="105" height="130"/><rect x="220" y="475" width="112" height="145"/><rect x="370" y="510" width="85" height="110"/><rect x="95" y="665" width="115" height="105"/><rect x="250" y="655" width="100" height="115"/></g>
<!-- right facades -->
<path d="M1090 445l250-115 260 125v365h-510z" fill="#10171a"/><path d="M1090 445l250-115 260 125-24 23-236-103-250 105z" fill="#1b2326"/>
<g fill="#1d272a" stroke="#2c3739" stroke-width="2"><rect x="1170" y="490" width="105" height="135"/><rect x="1320" y="470" width="112" height="150"/><rect x="1460" y="515" width="75" height="105"/><rect x="1190" y="660" width="105" height="110"/><rect x="1340" y="650" width="100" height="120"/></g>
<!-- windows with sparse warm light -->
<g fill="#c9a765" opacity=".32"><rect x="103" y="525" width="35" height="48"/><rect x="252" y="502" width="38" height="55"/><rect x="1198" y="515" width="35" height="52"/><rect x="1350" y="495" width="40" height="58"/></g>
<!-- perspective street -->
<path d="M555 900L745 500h110l190 400z" fill="url(#road)"/><path d="M770 900L795 500h18l55 400z" fill="#89918f" opacity=".14"/>
<g stroke="#b8a476" opacity=".15" stroke-width="3"><path d="M690 825h110"/><path d="M660 735h105"/><path d="M640 660h98"/></g>
<!-- lamp -->
<path d="M1185 355v370" stroke="#242d30" stroke-width="13"/><path d="M1185 360q0-45 42-45h35" fill="none" stroke="#242d30" stroke-width="11"/><path d="M1220 315l-8 25h34l-10-25z" fill="#d4b46b"/><circle cx="1229" cy="344" r="115" fill="url(#lampGlow)" filter="url(#blur)"/><circle cx="1229" cy="344" r="42" fill="url(#lampGlow)"/><path d="M1229 344v220" stroke="#d9bb77" stroke-width="3" opacity=".35"/>
<!-- fog -->
<path d="M0 650 Q300 590 610 675 T1180 665 T1600 675v160H0z" fill="#aab1ad" opacity=".035"/><path d="M0 735 Q350 675 730 745 T1600 740v110H0z" fill="#d0c7b2" opacity=".025"/>
<path d="M0 850Q280 775 560 850t520 0 520 0v50H0z" fill="#060809"/><path d="M0 895H1600" stroke="#a6323a" stroke-opacity=".65" stroke-width="2"/>
</svg>